REM DIRINDEX 1\2,1\3,1\4,1\5
REM DIRNAME folder01,folder02,folder03,folder04,folder05
TITLE ""
FILE "1800_142.mp3" MP3
  TRACK 01 AUDIO
    TITLE "2:cjc044_4317"
    INDEX 01 00:00:00
  TRACK 02 AUDIO
    TITLE "0:"
    INDEX 01 00:00:66
  TRACK 03 AUDIO
    TITLE "3:cjc044_4318"
    INDEX 01 00:01:46
  TRACK 04 AUDIO
    TITLE "0:"
    INDEX 01 00:02:38
  TRACK 05 AUDIO
    TITLE "4:cjc044_4319"
    INDEX 01 00:03:21
  TRACK 06 AUDIO
    TITLE "0:"
    INDEX 01 00:04:17
  TRACK 07 AUDIO
    TITLE "5:cjc044_4320"
    INDEX 01 00:05:05
  TRACK 08 AUDIO
    TITLE "0:"
    INDEX 01 00:08:09
  TRACK 09 AUDIO
    TITLE "2:cjc044_4321"
    INDEX 01 00:09:69
  TRACK 10 AUDIO
    TITLE "0:"
    INDEX 01 00:10:68
  TRACK 11 AUDIO
    TITLE "3:cjc044_4322"
    INDEX 01 00:11:56
  TRACK 12 AUDIO
    TITLE "0:"
    INDEX 01 00:12:69
  TRACK 13 AUDIO
    TITLE "4:cjc044_4323"
    INDEX 01 00:13:53
  TRACK 14 AUDIO
    TITLE "0:"
    INDEX 01 00:14:54
  TRACK 15 AUDIO
    TITLE "5:cjc044_4324"
    INDEX 01 00:15:40
  TRACK 16 AUDIO
    TITLE "0:"
    INDEX 01 00:18:56
  TRACK 17 AUDIO
    TITLE "2:cjc044_4325"
    INDEX 01 00:20:41
  TRACK 18 AUDIO
    TITLE "0:"
    INDEX 01 00:21:47
  TRACK 19 AUDIO
    TITLE "3:cjc044_4326"
    INDEX 01 00:22:29
  TRACK 20 AUDIO
    TITLE "0:"
    INDEX 01 00:23:48
  TRACK 21 AUDIO
    TITLE "4:cjc044_4327"
    INDEX 01 00:24:35
  TRACK 22 AUDIO
    TITLE "0:"
    INDEX 01 00:25:41
  TRACK 23 AUDIO
    TITLE "5:cjc044_4328"
    INDEX 01 00:26:22
  TRACK 24 AUDIO
    TITLE "0:"
    INDEX 01 00:30:14
  TRACK 25 AUDIO
    TITLE "2:cjc044_4329"
    INDEX 01 00:32:01
  TRACK 26 AUDIO
    TITLE "0:"
    INDEX 01 00:33:05
  TRACK 27 AUDIO
    TITLE "3:cjc044_4330"
    INDEX 01 00:33:68
  TRACK 28 AUDIO
    TITLE "0:"
    INDEX 01 00:35:47
  TRACK 29 AUDIO
    TITLE "4:cjc044_4331"
    INDEX 01 00:36:35
  TRACK 30 AUDIO
    TITLE "0:"
    INDEX 01 00:37:38
  TRACK 31 AUDIO
    TITLE "5:cjc044_4332"
    INDEX 01 00:38:18
  TRACK 32 AUDIO
    TITLE "0:"
    INDEX 01 00:41:30
  TRACK 33 AUDIO
    TITLE "2:cjc044_4333"
    INDEX 01 00:43:23
  TRACK 34 AUDIO
    TITLE "0:"
    INDEX 01 00:44:38
  TRACK 35 AUDIO
    TITLE "3:cjc044_4334"
    INDEX 01 00:45:26
  TRACK 36 AUDIO
    TITLE "0:"
    INDEX 01 00:46:41
  TRACK 37 AUDIO
    TITLE "4:cjc044_4335"
    INDEX 01 00:47:23
  TRACK 38 AUDIO
    TITLE "0:"
    INDEX 01 00:48:38
  TRACK 39 AUDIO
    TITLE "5:cjc044_4336"
    INDEX 01 00:49:25
  TRACK 40 AUDIO
    TITLE "0:"
    INDEX 01 00:52:47
  TRACK 41 AUDIO
    TITLE "2:cjc044_4337"
    INDEX 01 00:54:36
  TRACK 42 AUDIO
    TITLE "0:"
    INDEX 01 00:55:48
  TRACK 43 AUDIO
    TITLE "3:cjc044_4338"
    INDEX 01 00:56:24
  TRACK 44 AUDIO
    TITLE "0:"
    INDEX 01 00:57:35
  TRACK 45 AUDIO
    TITLE "4:cjc044_4339"
    INDEX 01 00:58:20
  TRACK 46 AUDIO
    TITLE "0:"
    INDEX 01 00:59:32
  TRACK 47 AUDIO
    TITLE "5:cjc044_4340"
    INDEX 01 01:00:13
  TRACK 48 AUDIO
    TITLE "0:"
    INDEX 01 01:03:51
  TRACK 49 AUDIO
    TITLE "2:cjc044_4341"
    INDEX 01 01:05:34
  TRACK 50 AUDIO
    TITLE "0:"
    INDEX 01 01:06:53
  TRACK 51 AUDIO
    TITLE "3:cjc044_4342"
    INDEX 01 01:07:43
  TRACK 52 AUDIO
    TITLE "0:"
    INDEX 01 01:08:38
  TRACK 53 AUDIO
    TITLE "4:cjc044_4343"
    INDEX 01 01:09:22
  TRACK 54 AUDIO
    TITLE "0:"
    INDEX 01 01:10:41
  TRACK 55 AUDIO
    TITLE "5:cjc044_4344"
    INDEX 01 01:11:21
  TRACK 56 AUDIO
    TITLE "0:"
    INDEX 01 01:14:27
  TRACK 57 AUDIO
    TITLE "2:cjc044_4345"
    INDEX 01 01:16:12
  TRACK 58 AUDIO
    TITLE "0:"
    INDEX 01 01:17:18
  TRACK 59 AUDIO
    TITLE "3:cjc044_4346"
    INDEX 01 01:18:02
  TRACK 60 AUDIO
    TITLE "0:"
    INDEX 01 01:18:68
  TRACK 61 AUDIO
    TITLE "4:cjc044_4347"
    INDEX 01 01:19:50
  TRACK 62 AUDIO
    TITLE "0:"
    INDEX 01 01:20:53
  TRACK 63 AUDIO
    TITLE "5:cjc044_4348"
    INDEX 01 01:21:41
  TRACK 64 AUDIO
    TITLE "0:"
    INDEX 01 01:24:00
  TRACK 65 AUDIO
    TITLE "2:cjc044_4349"
    INDEX 01 01:25:68
  TRACK 66 AUDIO
    TITLE "0:"
    INDEX 01 01:27:06
  TRACK 67 AUDIO
    TITLE "3:cjc044_4350"
    INDEX 01 01:27:67
  TRACK 68 AUDIO
    TITLE "0:"
    INDEX 01 01:28:63
  TRACK 69 AUDIO
    TITLE "4:cjc044_4351"
    INDEX 01 01:29:48
  TRACK 70 AUDIO
    TITLE "0:"
    INDEX 01 01:30:62
  TRACK 71 AUDIO
    TITLE "5:cjc044_4352"
    INDEX 01 01:31:36
  TRACK 72 AUDIO
    TITLE "0:"
    INDEX 01 01:34:42
